<svg width="22" height="22" viewBox="0 0 22 22" fill="none" xmlns="http://www.w3.org/2000/svg">
<rect width="22" height="22" rx="11" fill="#F0F1F2"/>
<path d="M8 5H13.3333C13.8638 5 14.3725 5.21071 14.7475 5.58579C15.1226 5.96086 15.3333 6.46957 15.3333 7V17L10.6667 15L6 17V7C6 6.46957 6.21071 5.96086 6.58579 5.58579C6.96086 5.21071 7.46957 5 8 5ZM8 5.66667C7.64638 5.66667 7.30724 5.80714 7.05719 6.05719C6.80714 6.30724 6.66667 6.64638 6.66667 7V16L10.6667 14.2933L14.6667 16V7C14.6667 6.64638 14.5262 6.30724 14.2761 6.05719C14.0261 5.80714 13.687 5.66667 13.3333 5.66667H8Z" fill="#F46B03"/>
</svg>
