<svg width="60" height="60" viewBox="0 0 60 60" fill="none" xmlns="http://www.w3.org/2000/svg">
<g filter="url(#filter0_d_122_36)">
<rect x="10" y="6" width="40" height="40" rx="20" fill="#F46B03" shape-rendering="crispEdges"/>
<path d="M28 27H33.8813C33.9545 27 34.0218 26.96 34.0569 26.8958L36.8387 21.7958C36.9114 21.6625 36.8149 21.5 36.6631 21.5H25" stroke="white" stroke-linecap="round"/>
<path d="M21 19H23.383C23.4553 19 23.5219 19.039 23.5573 19.1019L27.943 26.8987C27.9782 26.9613 27.9772 27.038 27.9402 27.0997L26.6817 29.1971C26.6018 29.3304 26.6978 29.5 26.8532 29.5H35.5" stroke="white" stroke-linecap="round"/>
<circle cx="34.5" cy="32.5" r="1" fill="white" stroke="white"/>
<circle cx="27.5" cy="32.5" r="1" fill="white" stroke="white"/>
</g>
<defs>
<filter id="filter0_d_122_36" x="0" y="0" width="60" height="60" filterUnits="userSpaceOnUse" color-interpolation-filters="sRGB">
<feFlood flood-opacity="0" result="BackgroundImageFix"/>
<feColorMatrix in="SourceAlpha" type="matrix" values="0 0 0 0 0 0 0 0 0 0 0 0 0 0 0 0 0 0 127 0" result="hardAlpha"/>
<feOffset dy="4"/>
<feGaussianBlur stdDeviation="5"/>
<feComposite in2="hardAlpha" operator="out"/>
<feColorMatrix type="matrix" values="0 0 0 0 0.990385 0 0 0 0 0.673698 0 0 0 0 0.433293 0 0 0 0.57 0"/>
<feBlend mode="normal" in2="BackgroundImageFix" result="effect1_dropShadow_122_36"/>
<feBlend mode="normal" in="SourceGraphic" in2="effect1_dropShadow_122_36" result="shape"/>
</filter>
</defs>
</svg>
