<svg width="61" height="15" viewBox="0 0 61 15" fill="none" xmlns="http://www.w3.org/2000/svg">
<path d="M0 7.5C0 3.35786 3.35786 0 7.5 0H53.5C57.6421 0 61 3.35786 61 7.5C61 11.6421 57.6421 15 53.5 15H7.5C3.35786 15 0 11.6421 0 7.5Z" fill="#E8E9FF"/>
<path d="M10.14 4.53V11.5H9.23V8.34H5.68V11.5H4.77V4.53H5.68V7.59H9.23V4.53H10.14ZM11.3538 8.74C11.3538 8.18 11.4672 7.69 11.6938 7.27C11.9205 6.84333 12.2305 6.51333 12.6238 6.28C13.0238 6.04667 13.4672 5.93 13.9538 5.93C14.4338 5.93 14.8505 6.03333 15.2038 6.24C15.5572 6.44667 15.8205 6.70667 15.9938 7.02V6.02H16.9138V11.5H15.9938V10.48C15.8138 10.8 15.5438 11.0667 15.1838 11.28C14.8305 11.4867 14.4172 11.59 13.9438 11.59C13.4572 11.59 13.0172 11.47 12.6238 11.23C12.2305 10.99 11.9205 10.6533 11.6938 10.22C11.4672 9.78667 11.3538 9.29333 11.3538 8.74ZM15.9938 8.75C15.9938 8.33667 15.9105 7.97667 15.7438 7.67C15.5772 7.36333 15.3505 7.13 15.0638 6.97C14.7838 6.80333 14.4738 6.72 14.1338 6.72C13.7938 6.72 13.4838 6.8 13.2038 6.96C12.9238 7.12 12.7005 7.35333 12.5338 7.66C12.3672 7.96667 12.2838 8.32667 12.2838 8.74C12.2838 9.16 12.3672 9.52667 12.5338 9.84C12.7005 10.1467 12.9238 10.3833 13.2038 10.55C13.4838 10.71 13.7938 10.79 14.1338 10.79C14.4738 10.79 14.7838 10.71 15.0638 10.55C15.3505 10.3833 15.5772 10.1467 15.7438 9.84C15.9105 9.52667 15.9938 9.16333 15.9938 8.75ZM19.3616 6.91C19.5216 6.59667 19.7483 6.35333 20.0416 6.18C20.3416 6.00667 20.705 5.92 21.1316 5.92V6.86H20.8916C19.8716 6.86 19.3616 7.41333 19.3616 8.52V11.5H18.4516V6.02H19.3616V6.91ZM21.8421 8.74C21.8421 8.18 21.9554 7.69 22.1821 7.27C22.4088 6.84333 22.7188 6.51333 23.1121 6.28C23.5121 6.04667 23.9588 5.93 24.4521 5.93C24.8788 5.93 25.2754 6.03 25.6421 6.23C26.0088 6.42333 26.2888 6.68 26.4821 7V4.1H27.4021V11.5H26.4821V10.47C26.3021 10.7967 26.0354 11.0667 25.6821 11.28C25.3288 11.4867 24.9154 11.59 24.4421 11.59C23.9554 11.59 23.5121 11.47 23.1121 11.23C22.7188 10.99 22.4088 10.6533 22.1821 10.22C21.9554 9.78667 21.8421 9.29333 21.8421 8.74ZM26.4821 8.75C26.4821 8.33667 26.3988 7.97667 26.2321 7.67C26.0654 7.36333 25.8388 7.13 25.5521 6.97C25.2721 6.80333 24.9621 6.72 24.6221 6.72C24.2821 6.72 23.9721 6.8 23.6921 6.96C23.4121 7.12 23.1888 7.35333 23.0221 7.66C22.8554 7.96667 22.7721 8.32667 22.7721 8.74C22.7721 9.16 22.8554 9.52667 23.0221 9.84C23.1888 10.1467 23.4121 10.3833 23.6921 10.55C23.9721 10.71 24.2821 10.79 24.6221 10.79C24.9621 10.79 25.2721 10.71 25.5521 10.55C25.8388 10.3833 26.0654 10.1467 26.2321 9.84C26.3988 9.52667 26.4821 9.16333 26.4821 8.75ZM28.5999 8.75C28.5999 8.18333 28.7133 7.69 28.9399 7.27C29.1666 6.84333 29.4799 6.51333 29.8799 6.28C30.2866 6.04667 30.7499 5.93 31.2699 5.93C31.9433 5.93 32.4966 6.09333 32.9299 6.42C33.3699 6.74667 33.6599 7.2 33.7999 7.78H32.8199C32.7266 7.44667 32.5433 7.18333 32.2699 6.99C32.0033 6.79667 31.6699 6.7 31.2699 6.7C30.7499 6.7 30.3299 6.88 30.0099 7.24C29.6899 7.59333 29.5299 8.09667 29.5299 8.75C29.5299 9.41 29.6899 9.92 30.0099 10.28C30.3299 10.64 30.7499 10.82 31.2699 10.82C31.6699 10.82 32.0033 10.7267 32.2699 10.54C32.5366 10.3533 32.7199 10.0867 32.8199 9.74H33.7999C33.6533 10.3 33.3599 10.75 32.9199 11.09C32.4799 11.4233 31.9299 11.59 31.2699 11.59C30.7499 11.59 30.2866 11.4733 29.8799 11.24C29.4799 11.0067 29.1666 10.6767 28.9399 10.25C28.7133 9.82333 28.5999 9.32333 28.5999 8.75ZM37.4041 11.59C36.8908 11.59 36.4241 11.4733 36.0041 11.24C35.5908 11.0067 35.2641 10.6767 35.0241 10.25C34.7908 9.81667 34.6741 9.31667 34.6741 8.75C34.6741 8.19 34.7941 7.69667 35.0341 7.27C35.2808 6.83667 35.6141 6.50667 36.0341 6.28C36.4541 6.04667 36.9241 5.93 37.4441 5.93C37.9641 5.93 38.4341 6.04667 38.8541 6.28C39.2741 6.50667 39.6041 6.83333 39.8441 7.26C40.0908 7.68667 40.2141 8.18333 40.2141 8.75C40.2141 9.31667 40.0875 9.81667 39.8341 10.25C39.5875 10.6767 39.2508 11.0067 38.8241 11.24C38.3975 11.4733 37.9241 11.59 37.4041 11.59ZM37.4041 10.79C37.7308 10.79 38.0375 10.7133 38.3241 10.56C38.6108 10.4067 38.8408 10.1767 39.0141 9.87C39.1941 9.56333 39.2841 9.19 39.2841 8.75C39.2841 8.31 39.1975 7.93667 39.0241 7.63C38.8508 7.32333 38.6241 7.09667 38.3441 6.95C38.0641 6.79667 37.7608 6.72 37.4341 6.72C37.1008 6.72 36.7941 6.79667 36.5141 6.95C36.2408 7.09667 36.0208 7.32333 35.8541 7.63C35.6875 7.93667 35.6041 8.31 35.6041 8.75C35.6041 9.19667 35.6841 9.57333 35.8441 9.88C36.0108 10.1867 36.2308 10.4167 36.5041 10.57C36.7775 10.7167 37.0775 10.79 37.4041 10.79ZM43.4506 10.66L45.1506 6.02H46.1206L43.9706 11.5H42.9106L40.7606 6.02H41.7406L43.4506 10.66ZM52.0161 8.55C52.0161 8.72333 52.0061 8.90667 51.9861 9.1H47.6061C47.6394 9.64 47.8228 10.0633 48.1561 10.37C48.4961 10.67 48.9061 10.82 49.3861 10.82C49.7794 10.82 50.1061 10.73 50.3661 10.55C50.6328 10.3633 50.8194 10.1167 50.9261 9.81H51.9061C51.7594 10.3367 51.4661 10.7667 51.0261 11.1C50.5861 11.4267 50.0394 11.59 49.3861 11.59C48.8661 11.59 48.3994 11.4733 47.9861 11.24C47.5794 11.0067 47.2594 10.6767 47.0261 10.25C46.7928 9.81667 46.6761 9.31667 46.6761 8.75C46.6761 8.18333 46.7894 7.68667 47.0161 7.26C47.2428 6.83333 47.5594 6.50667 47.9661 6.28C48.3794 6.04667 48.8528 5.93 49.3861 5.93C49.9061 5.93 50.3661 6.04333 50.7661 6.27C51.1661 6.49667 51.4728 6.81 51.6861 7.21C51.9061 7.60333 52.0161 8.05 52.0161 8.55ZM51.0761 8.36C51.0761 8.01333 50.9994 7.71667 50.8461 7.47C50.6928 7.21667 50.4828 7.02667 50.2161 6.9C49.9561 6.76667 49.6661 6.7 49.3461 6.7C48.8861 6.7 48.4928 6.84667 48.1661 7.14C47.8461 7.43333 47.6628 7.84 47.6161 8.36H51.0761ZM54.1273 6.91C54.2873 6.59667 54.5139 6.35333 54.8073 6.18C55.1073 6.00667 55.4706 5.92 55.8973 5.92V6.86H55.6573C54.6373 6.86 54.1273 7.41333 54.1273 8.52V11.5H53.2173V6.02H54.1273V6.91Z" fill="#1C25F2"/>
</svg>
