<svg width="62" height="15" viewBox="0 0 62 15" fill="none" xmlns="http://www.w3.org/2000/svg">
<path d="M0 7.5C0 3.35786 3.35786 0 7.5 0H54.5C58.6421 0 62 3.35786 62 7.5C62 11.6421 58.6421 15 54.5 15H7.5C3.35786 15 0 11.6421 0 7.5Z" fill="#E8E9FF"/>
<path d="M9.43 6.57C9.43 7.15 9.23 7.63333 8.83 8.02C8.43667 8.4 7.83333 8.59 7.02 8.59H5.68V11.5H4.77V4.53H7.02C7.80667 4.53 8.40333 4.72 8.81 5.1C9.22333 5.48 9.43 5.97 9.43 6.57ZM7.02 7.84C7.52667 7.84 7.9 7.73 8.14 7.51C8.38 7.29 8.5 6.97667 8.5 6.57C8.5 5.71 8.00667 5.28 7.02 5.28H5.68V7.84H7.02ZM10.221 8.74C10.221 8.18 10.3343 7.69 10.561 7.27C10.7877 6.84333 11.0977 6.51333 11.491 6.28C11.891 6.04667 12.3343 5.93 12.821 5.93C13.301 5.93 13.7177 6.03333 14.071 6.24C14.4243 6.44667 14.6877 6.70667 14.861 7.02V6.02H15.781V11.5H14.861V10.48C14.681 10.8 14.411 11.0667 14.051 11.28C13.6977 11.4867 13.2843 11.59 12.811 11.59C12.3243 11.59 11.8843 11.47 11.491 11.23C11.0977 10.99 10.7877 10.6533 10.561 10.22C10.3343 9.78667 10.221 9.29333 10.221 8.74ZM14.861 8.75C14.861 8.33667 14.7777 7.97667 14.611 7.67C14.4443 7.36333 14.2177 7.13 13.931 6.97C13.651 6.80333 13.341 6.72 13.001 6.72C12.661 6.72 12.351 6.8 12.071 6.96C11.791 7.12 11.5677 7.35333 11.401 7.66C11.2343 7.96667 11.151 8.32667 11.151 8.74C11.151 9.16 11.2343 9.52667 11.401 9.84C11.5677 10.1467 11.791 10.3833 12.071 10.55C12.351 10.71 12.661 10.79 13.001 10.79C13.341 10.79 13.651 10.71 13.931 10.55C14.2177 10.3833 14.4443 10.1467 14.611 9.84C14.7777 9.52667 14.861 9.16333 14.861 8.75ZM18.2288 7.03C18.4088 6.71667 18.6755 6.45667 19.0288 6.25C19.3888 6.03667 19.8055 5.93 20.2788 5.93C20.7655 5.93 21.2055 6.04667 21.5988 6.28C21.9988 6.51333 22.3122 6.84333 22.5388 7.27C22.7655 7.69 22.8788 8.18 22.8788 8.74C22.8788 9.29333 22.7655 9.78667 22.5388 10.22C22.3122 10.6533 21.9988 10.99 21.5988 11.23C21.2055 11.47 20.7655 11.59 20.2788 11.59C19.8122 11.59 19.3988 11.4867 19.0388 11.28C18.6855 11.0667 18.4155 10.8033 18.2288 10.49V14.1H17.3188V6.02H18.2288V7.03ZM21.9488 8.74C21.9488 8.32667 21.8655 7.96667 21.6988 7.66C21.5322 7.35333 21.3055 7.12 21.0188 6.96C20.7388 6.8 20.4288 6.72 20.0888 6.72C19.7555 6.72 19.4455 6.80333 19.1588 6.97C18.8788 7.13 18.6522 7.36667 18.4788 7.68C18.3122 7.98667 18.2288 8.34333 18.2288 8.75C18.2288 9.16333 18.3122 9.52667 18.4788 9.84C18.6522 10.1467 18.8788 10.3833 19.1588 10.55C19.4455 10.71 19.7555 10.79 20.0888 10.79C20.4288 10.79 20.7388 10.71 21.0188 10.55C21.3055 10.3833 21.5322 10.1467 21.6988 9.84C21.8655 9.52667 21.9488 9.16 21.9488 8.74ZM29.0766 8.55C29.0766 8.72333 29.0666 8.90667 29.0466 9.1H24.6666C24.7 9.64 24.8833 10.0633 25.2166 10.37C25.5566 10.67 25.9666 10.82 26.4466 10.82C26.84 10.82 27.1666 10.73 27.4266 10.55C27.6933 10.3633 27.88 10.1167 27.9866 9.81H28.9666C28.82 10.3367 28.5266 10.7667 28.0866 11.1C27.6466 11.4267 27.1 11.59 26.4466 11.59C25.9266 11.59 25.46 11.4733 25.0466 11.24C24.64 11.0067 24.32 10.6767 24.0866 10.25C23.8533 9.81667 23.7366 9.31667 23.7366 8.75C23.7366 8.18333 23.85 7.68667 24.0766 7.26C24.3033 6.83333 24.62 6.50667 25.0266 6.28C25.44 6.04667 25.9133 5.93 26.4466 5.93C26.9666 5.93 27.4266 6.04333 27.8266 6.27C28.2266 6.49667 28.5333 6.81 28.7466 7.21C28.9666 7.60333 29.0766 8.05 29.0766 8.55ZM28.1366 8.36C28.1366 8.01333 28.06 7.71667 27.9066 7.47C27.7533 7.21667 27.5433 7.02667 27.2766 6.9C27.0166 6.76667 26.7266 6.7 26.4066 6.7C25.9466 6.7 25.5533 6.84667 25.2266 7.14C24.9066 7.43333 24.7233 7.84 24.6766 8.36H28.1366ZM31.1878 6.91C31.3478 6.59667 31.5745 6.35333 31.8678 6.18C32.1678 6.00667 32.5311 5.92 32.9578 5.92V6.86H32.7178C31.6978 6.86 31.1878 7.41333 31.1878 8.52V11.5H30.2778V6.02H31.1878V6.91ZM34.9183 7.04C35.1049 6.71333 35.3783 6.44667 35.7383 6.24C36.0983 6.03333 36.5083 5.93 36.9683 5.93C37.4616 5.93 37.9049 6.04667 38.2983 6.28C38.6916 6.51333 39.0016 6.84333 39.2283 7.27C39.4549 7.69 39.5683 8.18 39.5683 8.74C39.5683 9.29333 39.4549 9.78667 39.2283 10.22C39.0016 10.6533 38.6883 10.99 38.2883 11.23C37.8949 11.47 37.4549 11.59 36.9683 11.59C36.4949 11.59 36.0783 11.4867 35.7183 11.28C35.3649 11.0733 35.0983 10.81 34.9183 10.49V11.5H34.0083V4.1H34.9183V7.04ZM38.6383 8.74C38.6383 8.32667 38.5549 7.96667 38.3883 7.66C38.2216 7.35333 37.9949 7.12 37.7083 6.96C37.4283 6.8 37.1183 6.72 36.7783 6.72C36.4449 6.72 36.1349 6.80333 35.8483 6.97C35.5683 7.13 35.3416 7.36667 35.1683 7.68C35.0016 7.98667 34.9183 8.34333 34.9183 8.75C34.9183 9.16333 35.0016 9.52667 35.1683 9.84C35.3416 10.1467 35.5683 10.3833 35.8483 10.55C36.1349 10.71 36.4449 10.79 36.7783 10.79C37.1183 10.79 37.4283 10.71 37.7083 10.55C37.9949 10.3833 38.2216 10.1467 38.3883 9.84C38.5549 9.52667 38.6383 9.16 38.6383 8.74ZM40.4261 8.74C40.4261 8.18 40.5394 7.69 40.7661 7.27C40.9928 6.84333 41.3028 6.51333 41.6961 6.28C42.0961 6.04667 42.5394 5.93 43.0261 5.93C43.5061 5.93 43.9228 6.03333 44.2761 6.24C44.6294 6.44667 44.8928 6.70667 45.0661 7.02V6.02H45.9861V11.5H45.0661V10.48C44.8861 10.8 44.6161 11.0667 44.2561 11.28C43.9028 11.4867 43.4894 11.59 43.0161 11.59C42.5294 11.59 42.0894 11.47 41.6961 11.23C41.3028 10.99 40.9928 10.6533 40.7661 10.22C40.5394 9.78667 40.4261 9.29333 40.4261 8.74ZM45.0661 8.75C45.0661 8.33667 44.9828 7.97667 44.8161 7.67C44.6494 7.36333 44.4228 7.13 44.1361 6.97C43.8561 6.80333 43.5461 6.72 43.2061 6.72C42.8661 6.72 42.5561 6.8 42.2761 6.96C41.9961 7.12 41.7728 7.35333 41.6061 7.66C41.4394 7.96667 41.3561 8.32667 41.3561 8.74C41.3561 9.16 41.4394 9.52667 41.6061 9.84C41.7728 10.1467 41.9961 10.3833 42.2761 10.55C42.5561 10.71 42.8661 10.79 43.2061 10.79C43.5461 10.79 43.8561 10.71 44.1361 10.55C44.4228 10.3833 44.6494 10.1467 44.8161 9.84C44.9828 9.52667 45.0661 9.16333 45.0661 8.75ZM47.1839 8.75C47.1839 8.18333 47.2972 7.69 47.5239 7.27C47.7506 6.84333 48.0639 6.51333 48.4639 6.28C48.8706 6.04667 49.3339 5.93 49.8539 5.93C50.5272 5.93 51.0806 6.09333 51.5139 6.42C51.9539 6.74667 52.2439 7.2 52.3839 7.78H51.4039C51.3106 7.44667 51.1272 7.18333 50.8539 6.99C50.5872 6.79667 50.2539 6.7 49.8539 6.7C49.3339 6.7 48.9139 6.88 48.5939 7.24C48.2739 7.59333 48.1139 8.09667 48.1139 8.75C48.1139 9.41 48.2739 9.92 48.5939 10.28C48.9139 10.64 49.3339 10.82 49.8539 10.82C50.2539 10.82 50.5872 10.7267 50.8539 10.54C51.1206 10.3533 51.3039 10.0867 51.4039 9.74H52.3839C52.2372 10.3 51.9439 10.75 51.5039 11.09C51.0639 11.4233 50.5139 11.59 49.8539 11.59C49.3339 11.59 48.8706 11.4733 48.4639 11.24C48.0639 11.0067 47.7506 10.6767 47.5239 10.25C47.2972 9.82333 47.1839 9.32333 47.1839 8.75ZM56.6581 11.5L54.5081 9.08V11.5H53.5981V4.1H54.5081V8.45L56.6181 6.02H57.8881L55.3081 8.75L57.8981 11.5H56.6581Z" fill="#1C25F2"/>
</svg>
