<svg width="25" height="25" viewBox="0 0 25 25" fill="none" xmlns="http://www.w3.org/2000/svg">
<g opacity="0.82">
<path fill-rule="evenodd" clip-rule="evenodd" d="M11.5313 17.4999C11.8084 17.278 12.1528 17.1571 12.5078 17.1571C12.8628 17.1571 13.2073 17.278 13.4844 17.4999L18.7656 21.7187V4.6874H6.26564V21.7187L11.5469 17.4999H11.5313ZM12.5078 18.7202L5.96095 23.9546C5.84607 24.0463 5.70765 24.1038 5.56158 24.1204C5.41551 24.137 5.26772 24.112 5.13521 24.0483C5.00269 23.9847 4.89082 23.8849 4.81246 23.7606C4.73409 23.6362 4.69241 23.4922 4.6922 23.3452V4.59521C4.6922 4.18081 4.85682 3.78339 5.14985 3.49036C5.44287 3.19733 5.8403 3.03271 6.2547 3.03271H18.7547C19.1691 3.03271 19.5665 3.19733 19.8596 3.49036C20.1526 3.78339 20.3172 4.18081 20.3172 4.59521V23.3452C20.317 23.4922 20.2753 23.6362 20.1969 23.7606C20.1186 23.8849 20.0067 23.9847 19.8742 24.0483C19.7417 24.112 19.5939 24.137 19.4478 24.1204C19.3018 24.1038 19.1633 24.0463 19.0484 23.9546L12.5016 18.7202H12.5078Z" fill="black"/>
</g>
</svg>
