<svg width="22" height="22" viewBox="0 0 22 22" fill="none" xmlns="http://www.w3.org/2000/svg">
<g opacity="0.8">
<rect width="22" height="22" rx="11" fill="#F0F1F2"/>
<path d="M11.27 12.7086C12.4316 12.7086 13.3732 11.767 13.3732 10.6054C13.3732 9.44383 12.4316 8.5022 11.27 8.5022C10.1084 8.5022 9.16681 9.44383 9.16681 10.6054C9.16681 11.767 10.1084 12.7086 11.27 12.7086Z" stroke="black"/>
<path d="M16.1903 9.9649C16.4234 10.2485 16.54 10.3897 16.54 10.6055C16.54 10.8212 16.4234 10.9624 16.1903 11.246C15.337 12.282 13.4549 14.2109 11.27 14.2109C9.08508 14.2109 7.20303 12.282 6.34973 11.246C6.11658 10.9624 6 10.8212 6 10.6055C6 10.3897 6.11658 10.2485 6.34973 9.9649C7.20303 8.92893 9.08508 7 11.27 7C13.4549 7 15.337 8.92893 16.1903 9.9649Z" stroke="black"/>
</g>
</svg>
